REM MD5 cdc8a68d2460bbb0208b45e982ba57a3
FILE "International Superstar Soccer Pro '98 (Europe) (Demo).bin" BINARY
  TRACK 01 MODE2/2352
    FLAGS DCP
    INDEX 01 00:00:00
  TRACK 02 AUDIO
    FLAGS DCP
    INDEX 00 37:06:56
    INDEX 01 37:08:56
  TRACK 03 AUDIO
    FLAGS DCP
    INDEX 00 38:51:64
    INDEX 01 38:53:64
REM LEADOUT 41:53:65
